<svg width="48" height="48" fill="none" xmlns="http://www.w3.org/2000/svg"><path d="M23.422 15.577l.087 1.557-1.445-.191c-5.26-.73-9.856-3.21-13.758-7.372L6.4 7.505 5.908 9.03c-1.04 3.4-.376 6.991 1.791 9.406 1.157 1.335.896 1.526-1.098.731-.693-.254-1.3-.445-1.358-.35-.203.223.491 3.115 1.04 4.26.752 1.588 2.284 3.145 3.96 4.067l1.416.73-1.676.032c-1.619 0-1.677.032-1.503.7.578 2.065 2.861 4.258 5.405 5.21l1.792.668-1.561 1.017a15.28 15.28 0 01-7.746 2.352c-1.3.031-2.37.158-2.37.254 0 .318 3.526 2.097 5.578 2.796 6.156 2.066 13.469 1.176 18.96-2.351 3.902-2.51 7.804-7.5 9.624-12.33.983-2.574 1.966-7.277 1.966-9.533 0-1.462.087-1.653 1.705-3.4.954-1.017 1.85-2.13 2.023-2.447.29-.604.26-.604-1.214-.064-2.456.954-2.803.826-1.59-.604.897-1.017 1.966-2.86 1.966-3.4 0-.095-.434.064-.925.35-.52.317-1.676.794-2.543 1.08l-1.561.54-1.416-1.048c-.78-.572-1.879-1.208-2.457-1.398-1.474-.445-3.728-.382-5.058.127-3.613 1.43-5.896 5.116-5.636 9.152z" fill="#55ACEE"/></svg>