<svg width="48" height="48" fill="none" xmlns="http://www.w3.org/2000/svg"><path fill-rule="evenodd" clip-rule="evenodd" d="M6.098 3h35.795A3.07 3.07 0 0145 6.03v35.94A3.073 3.073 0 0141.893 45H6.098A3.067 3.067 0 013 41.97V6.029A3.065 3.065 0 016.098 3zM9.223 38.79h6.236V18.746H9.223v20.043zm3.12-22.782a3.613 3.613 0 11-.004-7.225 3.613 3.613 0 01.004 7.225zM32.562 38.79h6.229V27.797c0-5.399-1.166-9.549-7.473-9.549a6.544 6.544 0 00-5.894 3.238h-.086v-2.74h-5.971v20.043h6.222v-9.914c0-2.614.494-5.148 3.736-5.148 3.197 0 3.237 2.99 3.237 5.315v9.747z" fill="#0073B1"/></svg>