<svg width="48" height="48" fill="none" xmlns="http://www.w3.org/2000/svg"><path d="M12.403 29.277a4.212 4.212 0 01-4.201 4.202A4.212 4.212 0 014 29.277a4.212 4.212 0 014.202-4.201h4.201v4.201zM14.522 29.277a4.212 4.212 0 014.202-4.201 4.212 4.212 0 014.202 4.201v10.521A4.212 4.212 0 0118.724 44a4.212 4.212 0 01-4.202-4.202v-10.52z" fill="#E01E5A"/><path d="M18.724 12.403a4.212 4.212 0 01-4.202-4.202A4.212 4.212 0 0118.724 4 4.212 4.212 0 0122.926 8.2v4.202h-4.202zM18.723 14.522a4.212 4.212 0 014.201 4.202 4.212 4.212 0 01-4.201 4.202H8.202A4.212 4.212 0 014 18.724a4.212 4.212 0 014.202-4.202h10.52z" fill="#36C5F0"/><path d="M35.595 18.724a4.212 4.212 0 014.202-4.202 4.212 4.212 0 014.202 4.202 4.212 4.212 0 01-4.202 4.202h-4.202v-4.202zM33.48 18.723a4.212 4.212 0 01-4.203 4.201 4.212 4.212 0 01-4.201-4.201V8.2A4.212 4.212 0 0129.277 4 4.212 4.212 0 0133.48 8.2v10.521z" fill="#2EB67D"/><path d="M29.277 35.595a4.212 4.212 0 014.202 4.202 4.212 4.212 0 01-4.202 4.202 4.212 4.212 0 01-4.201-4.202v-4.202h4.201zM29.277 33.48a4.212 4.212 0 01-4.201-4.203 4.212 4.212 0 014.201-4.201h10.521A4.212 4.212 0 0144 29.277a4.212 4.212 0 01-4.202 4.202h-10.52z" fill="#ECB22E"/></svg>